<svg width="93" height="93" viewBox="0 0 93 93" fill="none" xmlns="http://www.w3.org/2000/svg">
<g id="Group 86">
<g id="Group 80">
<path id="Vector" d="M62.2841 40.4505C65.167 37.5398 65.8881 33.5321 63.8918 31.5166C61.8955 29.501 57.9262 30.2292 55.0433 33.1399C52.3165 35.8931 51.5251 39.6267 53.1368 41.7285L49.3739 45.5277L48.6123 44.7588L30.6287 62.9157L32.7923 65.1002L50.776 46.9431L50.0145 46.1743L53.7774 42.3751C55.8593 44.0025 59.5572 43.2036 62.2841 40.4505ZM49.4411 46.9976L32.8464 63.7523L31.964 62.8614L48.5587 46.1067L49.4411 46.9976ZM54.1298 41.3727C52.4869 39.7139 53.1842 36.3108 55.6841 33.7867C58.1841 31.2627 61.5547 30.5586 63.1977 32.2174C64.8407 33.8763 64.1435 37.2795 61.6435 39.8036C59.1436 42.3276 55.7729 43.0316 54.1298 41.3727Z" fill="#242424"/>
<path id="Vector_2" d="M38.2656 33.1371C35.3867 30.2224 31.4228 29.4933 29.4293 31.5116C27.4357 33.5299 28.156 37.543 31.0349 40.4577C33.758 43.2146 37.4508 44.0148 39.5297 42.3853L43.2873 46.1897L42.5268 46.9596L60.4855 65.1415L62.6461 62.954L44.6873 44.7721L43.9269 45.5419L40.1692 41.7375C41.7788 39.6327 40.9887 35.894 38.2656 33.1371ZM44.7412 46.1217L61.3129 62.8994L60.4317 63.7915L43.8601 47.0138L44.7412 46.1217ZM39.1777 41.3812C37.537 43.0423 34.1711 42.3373 31.6746 39.8098C29.1781 37.2823 28.4818 33.8745 30.1225 32.2134C31.7633 30.5522 35.1293 31.2572 37.6258 33.7847C40.1222 36.3122 40.8185 39.7201 39.1777 41.3812Z" fill="#242424"/>
</g>
<g id="Group 83">
<path id="D" d="M45.9289 7.72162C45.701 7.72162 45.4446 7.70938 45.1597 7.68491C45.0457 7.67675 44.9074 7.66859 44.7446 7.66043C44.5818 7.65227 44.3986 7.6482 44.1951 7.6482L43.2916 7.66043C43.1451 7.66859 42.9376 7.67267 42.669 7.67267C42.6527 7.67267 42.6445 7.6482 42.6445 7.59925C42.6445 7.5503 42.6527 7.52582 42.669 7.52582C42.9213 7.52582 43.1044 7.50543 43.2184 7.46464C43.3323 7.42385 43.4097 7.34635 43.4504 7.23213C43.4992 7.10976 43.5195 6.92621 43.5114 6.68146V1.01568C43.4951 0.770938 43.4626 0.591461 43.4137 0.477248C43.373 0.363034 43.2957 0.285532 43.1817 0.244742C43.0678 0.195794 42.8969 0.17132 42.669 0.17132C42.6527 0.17132 42.6445 0.146845 42.6445 0.0978971C42.6445 0.0489488 42.6527 0.0244746 42.669 0.0244746L43.2916 0.0367116C43.6498 0.0530275 43.9428 0.0611855 44.1707 0.0611855C44.4393 0.0611855 44.7079 0.0489485 44.9765 0.0244746C45.3184 0.00815821 45.5707 0 45.7335 0C46.5882 0 47.3452 0.159083 48.0045 0.477248C48.6638 0.787255 49.1766 1.22371 49.5429 1.78662C49.9092 2.34953 50.0923 2.99401 50.0923 3.72008C50.0923 4.50326 49.897 5.20077 49.5063 5.81263C49.1237 6.41633 48.615 6.88542 47.9801 7.2199C47.3452 7.55438 46.6614 7.72162 45.9289 7.72162ZM45.819 7.47688C46.3888 7.47688 46.8853 7.34227 47.3085 7.07305C47.7318 6.79568 48.0574 6.39593 48.2853 5.87381C48.5214 5.3517 48.6394 4.72353 48.6394 3.9893C48.6394 3.36113 48.5376 2.76559 48.3341 2.20268C48.1307 1.63162 47.8051 1.16253 47.3574 0.795412C46.9178 0.428299 46.3562 0.244742 45.6725 0.244742C45.3469 0.244742 45.1271 0.305928 45.0132 0.428299C44.8992 0.542512 44.8422 0.746464 44.8422 1.04015V6.54686C44.8504 6.88134 44.9196 7.122 45.0498 7.26884C45.1882 7.40753 45.4446 7.47688 45.819 7.47688Z" fill="#BB2339"/>
<path id="E" d="M60.5733 8.19213C60.5935 8.18107 60.6153 8.17899 60.6387 8.18588C60.6621 8.19278 60.6833 8.2075 60.7021 8.23005C60.7233 8.24477 60.7288 8.2549 60.7187 8.26043C60.4915 8.74624 60.2897 9.29051 60.1131 9.89323C60.0947 9.95585 60.0693 9.99937 60.0367 10.0238C60.0063 10.0404 59.956 10.0383 59.8858 10.0176L54.5438 8.44554C54.5125 8.43634 54.5038 8.40826 54.5175 8.3613C54.5313 8.31433 54.5499 8.2943 54.5733 8.30119C54.8076 8.37015 54.9813 8.39999 55.0943 8.39073C55.2151 8.38377 55.3071 8.3301 55.3705 8.2297C55.4416 8.13161 55.5128 7.96123 55.5839 7.71858L57.1765 2.2823C57.2453 2.04747 57.2762 1.86952 57.2693 1.74844C57.2623 1.62736 57.2099 1.53116 57.112 1.45985C57.0165 1.3807 56.8593 1.30895 56.6406 1.2446C56.6172 1.2377 56.6085 1.20962 56.6144 1.16036C56.6282 1.11339 56.6429 1.09221 56.6585 1.09681L61.7076 2.58272C61.7701 2.60111 61.791 2.64552 61.7704 2.71597L61.3398 4.27274C61.3329 4.29622 61.306 4.30106 61.2591 4.28727C61.2201 4.27578 61.199 4.26106 61.1957 4.24311C61.1914 3.76569 61.0502 3.35002 60.7721 2.99611C60.5042 2.63667 60.132 2.38685 59.6556 2.24665L59.433 2.18114C59.1909 2.10989 59.0094 2.07775 58.8886 2.08471C58.7779 2.08614 58.6932 2.12922 58.6344 2.21396C58.5757 2.2987 58.5103 2.4495 58.4383 2.66638L57.7365 5.06163L59.2009 5.49258C59.5992 5.6098 59.9127 5.62554 60.1414 5.5398C60.3701 5.45407 60.5304 5.25465 60.6221 4.94154C60.6313 4.91023 60.6632 4.90262 60.7179 4.91871C60.7725 4.9348 60.7941 4.96241 60.7827 5.00155L60.5818 5.64388C60.5464 5.73551 60.5035 5.86743 60.4531 6.03964C60.3797 6.29012 60.3286 6.47914 60.2997 6.60668L60.1257 7.24416C60.1142 7.2833 60.085 7.29597 60.0382 7.28218C60.0147 7.27529 59.9925 7.26448 59.9713 7.24976C59.9603 7.2295 59.9571 7.21155 59.9617 7.1959C60.0603 6.85931 60.0294 6.57388 59.8689 6.33962C59.7186 6.09982 59.456 5.92477 59.0812 5.81444L57.6402 5.39039L56.8628 8.04395C56.7711 8.35706 56.7583 8.57436 56.8245 8.69588C56.8985 8.81969 57.0917 8.92756 57.4041 9.0195L57.7322 9.11603C58.2398 9.26542 58.7469 9.25737 59.2535 9.09186C59.7624 8.91852 60.2023 8.61861 60.5733 8.19213Z" fill="#BB2339"/>
<path id="L" d="M65.1779 12.474C65.1642 12.4652 65.1706 12.4402 65.197 12.399C65.2234 12.3578 65.2434 12.3417 65.2571 12.3505C65.4694 12.4872 65.6345 12.5693 65.7523 12.5967C65.8702 12.6241 65.9736 12.5986 66.0626 12.5202C66.1585 12.4462 66.2746 12.3028 66.411 12.09L69.4673 7.32367C69.5993 7.11778 69.679 6.95577 69.7064 6.83763C69.7337 6.7195 69.7105 6.6124 69.6366 6.51633C69.5672 6.41341 69.4366 6.3002 69.2448 6.1767C69.2243 6.16347 69.2272 6.13626 69.2536 6.09509C69.28 6.05391 69.3035 6.03993 69.324 6.05317L69.8105 6.38102C70.103 6.58882 70.3416 6.75225 70.5265 6.87134C70.7114 6.99043 70.9657 7.14455 71.2895 7.33371L71.82 7.66083C71.8337 7.66965 71.8273 7.69465 71.8009 7.73582C71.7745 7.777 71.7544 7.79318 71.7407 7.78436C71.5285 7.64763 71.3612 7.56898 71.2389 7.54841C71.1279 7.52539 71.0245 7.55089 70.9286 7.62492C70.8396 7.70336 70.7235 7.84675 70.5802 8.0551L67.557 12.77C67.3854 13.0376 67.3086 13.2403 67.3267 13.3781C67.3493 13.5089 67.4667 13.6427 67.6789 13.7795L67.9665 13.9647C68.5212 14.322 69.0626 14.4962 69.5908 14.4873C70.1302 14.4759 70.6823 14.2788 71.2472 13.8959C71.2696 13.891 71.2912 13.8951 71.3117 13.9084C71.3323 13.9216 71.3484 13.9417 71.3601 13.9687C71.3763 13.9888 71.3799 14.0057 71.3711 14.0194C70.9555 14.5469 70.5915 15.0542 70.279 15.5415C70.213 15.6445 70.1287 15.6629 70.0259 15.5967L65.1779 12.474Z" fill="#BB2339"/>
<path id="I" d="M74.82 20.1393C74.8093 20.1269 74.8225 20.1047 74.8594 20.0727C74.8963 20.0406 74.9201 20.0308 74.9307 20.0431C75.096 20.2342 75.2286 20.3565 75.3287 20.4099C75.434 20.4696 75.5431 20.4774 75.6559 20.4334C75.7687 20.3894 75.9204 20.2846 76.1111 20.119L80.3833 16.4087C80.5617 16.2538 80.678 16.1204 80.7321 16.0087C80.7978 15.8977 80.8086 15.7857 80.7648 15.6727C80.7271 15.5543 80.6309 15.4057 80.4763 15.2269C80.4657 15.2146 80.4761 15.1893 80.5077 15.1511C80.5446 15.119 80.5711 15.1123 80.5871 15.1308L80.9776 15.6012C81.1998 15.8831 81.3829 16.1074 81.5268 16.2738C81.6867 16.4588 81.8954 16.6877 82.1529 16.9607L82.5539 17.4058C82.5646 17.4181 82.5515 17.4403 82.5146 17.4724C82.4777 17.5044 82.4539 17.5143 82.4432 17.502C82.2833 17.317 82.1476 17.1974 82.0361 17.1431C81.9245 17.0889 81.8124 17.0837 81.6996 17.1277C81.5922 17.1778 81.4404 17.2826 81.2444 17.4421L76.9906 21.1363C76.8061 21.2966 76.684 21.4296 76.6246 21.5352C76.5704 21.647 76.5622 21.762 76.5999 21.8804C76.6438 21.9934 76.743 22.1394 76.8976 22.3182C76.9083 22.3305 76.8951 22.3527 76.8582 22.3847C76.8213 22.4168 76.7975 22.4266 76.7869 22.4143C76.6216 22.2232 76.4915 22.0664 76.3963 21.9439L75.8219 21.2608L75.245 20.6122C75.1376 20.5004 74.9959 20.3427 74.82 20.1393Z" fill="#BB2339"/>
<path id="G" d="M81.7374 31.042C81.3621 30.2183 81.195 29.4293 81.2361 28.6751C81.2806 27.9283 81.5078 27.2682 81.9177 26.695C82.335 26.1183 82.8916 25.6707 83.5876 25.3521C84.2614 25.0437 84.946 24.9456 85.6414 25.0578C86.3442 25.1666 86.984 25.4612 87.5608 25.9416C88.145 26.4186 88.6096 27.0355 88.9545 27.7925C89.1134 28.1412 89.2424 28.5127 89.3414 28.9068C89.4479 29.2975 89.504 29.6171 89.5098 29.8656C89.5073 29.9385 89.4946 29.9892 89.4717 30.0176C89.4489 30.046 89.3984 30.0825 89.3203 30.1272L87.906 30.8822C87.8764 30.8958 87.8494 30.8857 87.8251 30.852C87.8008 30.8182 87.7964 30.7889 87.8118 30.7639C88.2562 30.2466 88.5375 29.7053 88.6557 29.1399C88.7814 28.5712 88.7174 28.0086 88.4638 27.452C88.1358 26.7322 87.6251 26.2889 86.9316 26.122C86.2455 25.9517 85.4656 26.0665 84.592 26.4664C83.8293 26.8155 83.2164 27.2574 82.7532 27.7923C82.29 28.3272 82.0041 28.8976 81.8953 29.5034C81.79 30.1166 81.8709 30.7164 82.138 31.3026C82.2597 31.5698 82.3897 31.7569 82.528 31.864C82.6737 31.9677 82.8472 32.0049 83.0486 31.9755C83.2608 31.9501 83.5408 31.8578 83.8888 31.6985C84.2516 31.5325 84.4993 31.3788 84.6317 31.2374C84.7642 31.0961 84.8157 30.9245 84.7864 30.7227C84.7571 30.5208 84.6528 30.2233 84.4736 29.83C84.4533 29.7854 84.4728 29.7496 84.532 29.7225C84.5542 29.7123 84.5744 29.7076 84.5926 29.7082C84.6216 29.7129 84.6395 29.7227 84.6462 29.7375C84.8899 30.3704 85.1047 30.8909 85.2906 31.299C85.4665 31.6849 85.6602 32.0806 85.8717 32.486C85.8853 32.5156 85.8678 32.5461 85.8194 32.5772C85.7709 32.6083 85.7399 32.6091 85.7264 32.5794C85.6797 32.4573 85.6163 32.3966 85.5361 32.3974C85.4559 32.3983 85.2974 32.4529 85.0605 32.5613L84.3053 32.907C83.9721 33.0595 83.7439 33.1774 83.6208 33.2607C83.4977 33.3439 83.4102 33.3974 83.3583 33.4211C83.3139 33.4415 83.2809 33.4476 83.2594 33.4395C83.2412 33.4389 83.2145 33.4197 83.1794 33.382C82.5393 32.527 82.0586 31.747 81.7374 31.042Z" fill="#BB2339"/>
<path id="H" d="M85.4484 45.1308C85.4507 45.147 85.4277 45.1585 85.3794 45.1655C85.331 45.1725 85.3057 45.1679 85.3034 45.1517C85.2709 44.9256 85.2483 44.7393 85.2355 44.5928L85.1173 43.6826L84.9801 42.8123C84.95 42.66 84.9159 42.4506 84.8777 42.1841C84.8754 42.168 84.8978 42.1524 84.945 42.1374C84.9933 42.1304 85.0192 42.139 85.0227 42.1632C85.0586 42.4136 85.1042 42.5883 85.1596 42.6875C85.2161 42.7947 85.303 42.8564 85.4205 42.8724C85.5379 42.8885 85.7215 42.8785 85.9713 42.8425L88.7508 42.442L88.2504 38.9535L85.4708 39.3541C85.2291 39.3889 85.0548 39.4347 84.9478 39.4913C84.8419 39.556 84.7729 39.6484 84.7408 39.7684C84.7167 39.8872 84.7221 40.0678 84.7568 40.31C84.7603 40.3343 84.7379 40.3498 84.6895 40.3568C84.6412 40.3638 84.6153 40.3552 84.6118 40.3309C84.5736 40.0645 84.5481 39.858 84.5353 39.7114L84.4188 38.8134L84.2868 37.9793C84.2567 37.8271 84.2238 37.6258 84.1878 37.3755C84.1844 37.3512 84.2068 37.3356 84.2551 37.3287C84.3035 37.3217 84.3294 37.3303 84.3329 37.3546C84.3676 37.5968 84.4127 37.7675 84.468 37.8667C84.5245 37.9739 84.6115 38.0356 84.7289 38.0516C84.8475 38.0758 85.0317 38.0698 85.2814 38.0338L90.8769 37.2275C91.2164 37.1868 91.431 37.1064 91.5207 36.9864C91.6184 36.8651 91.6436 36.639 91.5961 36.3079C91.5926 36.2837 91.615 36.2681 91.6634 36.2611C91.7117 36.2542 91.7376 36.2628 91.7411 36.287L91.8124 36.8702C91.8473 37.2278 91.8803 37.5156 91.9116 37.7336C91.9429 37.9517 91.9932 38.2452 92.0626 38.6144L92.1633 39.2304C92.1656 39.2465 92.1426 39.2581 92.0943 39.265C92.046 39.272 92.0206 39.2674 92.0183 39.2513C91.9836 39.009 91.9339 38.8348 91.8693 38.7288C91.8048 38.6227 91.7092 38.5582 91.5825 38.5352C91.4651 38.5191 91.285 38.5245 91.0421 38.5513L88.5888 38.9048L89.0875 42.3811L91.5408 42.0276C91.8872 41.9776 92.1093 41.8921 92.2071 41.7708C92.306 41.6577 92.3317 41.4356 92.2842 41.1045C92.2818 41.0883 92.3043 41.0727 92.3515 41.0577C92.3998 41.0507 92.4257 41.0594 92.4292 41.0836L92.5022 41.6788C92.5371 42.0365 92.5707 42.3283 92.6032 42.5544C92.6345 42.7725 92.6836 43.058 92.7507 43.4109L92.8514 44.0269C92.8549 44.0512 92.8325 44.0668 92.7841 44.0737C92.7358 44.0807 92.7099 44.0721 92.7064 44.0478C92.6716 43.8056 92.622 43.6314 92.5574 43.5253C92.5021 43.4262 92.4151 43.3645 92.2965 43.3404C92.1779 43.3163 91.9966 43.3136 91.7526 43.3322L86.1572 44.1386C85.9235 44.1722 85.7498 44.222 85.6359 44.2879C85.5312 44.3606 85.4633 44.4611 85.4324 44.5892C85.4095 44.7161 85.4148 44.8967 85.4484 45.1308Z" fill="#BB2339"/>
<path id="T" d="M84.9539 50.2971C84.9574 50.2729 84.9833 50.2643 85.0316 50.2713C85.08 50.2782 85.103 50.2898 85.1007 50.3059C85.052 50.6451 85.0368 50.8943 85.0551 51.0535C85.0722 51.2208 85.1331 51.3409 85.2378 51.4136C85.3506 51.4876 85.5278 51.542 85.7695 51.5768L91.3649 52.3831C91.6458 52.4318 91.8363 52.4222 91.9365 52.3542C92.0447 52.2874 92.1151 52.1409 92.1475 51.9148L92.1701 51.7574C92.2095 51.4828 92.1597 51.1995 92.0207 50.9075C91.8897 50.6167 91.6925 50.3575 91.4291 50.1299C91.1738 49.9036 90.8798 49.7458 90.5472 49.6567C90.5311 49.6544 90.5259 49.633 90.5317 49.5926C90.5352 49.5684 90.5427 49.5448 90.5542 49.5217C90.5727 49.5079 90.5853 49.5056 90.5922 49.5148C90.8926 49.5993 91.6856 49.7754 92.9711 50.0431C92.9953 50.0466 93.0045 50.0685 92.9987 50.1089C92.9952 50.1331 92.9883 50.1527 92.9779 50.1677C92.9664 50.1907 92.9526 50.2011 92.9364 50.1988C92.7673 50.1744 92.6566 50.3439 92.6045 50.7073C92.4865 51.3579 92.3568 52.1758 92.2155 53.1609C92.1518 53.605 92.0886 54.1028 92.0259 54.6542L91.9164 55.5039C91.8782 55.7703 91.8705 55.967 91.8934 56.094C91.9163 56.2209 91.9859 56.3092 92.1021 56.3589C92.1239 56.3786 92.1279 56.408 92.1141 56.4472C92.1071 56.4957 92.0881 56.5135 92.0571 56.5008C91.706 56.4255 91.2624 56.3368 90.726 56.2348C90.1978 56.134 89.8404 56.0742 89.6539 56.0556C89.6298 56.0521 89.6212 56.0262 89.6281 55.9777C89.6374 55.9131 89.6581 55.8831 89.6903 55.8878C90.0207 55.9354 90.3378 55.9028 90.6418 55.79C90.9447 55.6853 91.1998 55.5119 91.4072 55.2698C91.6135 55.0358 91.7386 54.7653 91.7826 54.4585L91.8052 54.301C91.8284 54.1395 91.8251 54.0195 91.7952 53.941C91.7642 53.8706 91.7015 53.8204 91.6071 53.7903C91.5208 53.7614 91.3695 53.7272 91.1531 53.6878L85.5801 52.8971C85.3303 52.8611 85.1456 52.8592 85.0258 52.8914C84.9049 52.9316 84.8133 53.0256 84.751 53.1732C84.6887 53.3208 84.6327 53.5682 84.5829 53.9155C84.5794 53.9397 84.5535 53.9483 84.5051 53.9414C84.4568 53.9344 84.4344 53.9188 84.4378 53.8946C84.4807 53.5958 84.5183 53.3622 84.5507 53.1938L84.7209 52.0933L84.8583 51.0499C84.8757 50.8711 84.9076 50.6201 84.9539 50.2971Z" fill="#BB2339"/>
<path id="I_2" d="M76.4446 71.0083C76.4553 70.996 76.479 71.0058 76.516 71.0379C76.5529 71.07 76.566 71.0921 76.5553 71.1045C76.3901 71.2956 76.2882 71.4446 76.2497 71.5515C76.2058 71.6645 76.2136 71.7738 76.2731 71.8794C76.3325 71.9851 76.4576 72.1207 76.6483 72.2863L80.9206 75.9966C81.099 76.1515 81.2472 76.2479 81.3653 76.2857C81.4842 76.335 81.5964 76.3298 81.7018 76.2702C81.8133 76.216 81.9464 76.0995 82.1009 75.9207C82.1116 75.9083 82.138 75.9151 82.1803 75.941C82.2172 75.973 82.2277 75.9983 82.2117 76.0168L81.8027 76.4712C81.5558 76.7318 81.3604 76.9453 81.2165 77.1118C81.0566 77.2968 80.8602 77.5364 80.6273 77.8307L80.2448 78.2919C80.2341 78.3042 80.2103 78.2943 80.1734 78.2623C80.1365 78.2302 80.1234 78.208 80.134 78.1957C80.294 78.0107 80.3928 77.8591 80.4305 77.7407C80.4682 77.6223 80.4573 77.5103 80.3978 77.4047C80.333 77.3053 80.208 77.1696 80.0226 76.9979L75.7688 73.3036C75.5843 73.1433 75.4356 73.0412 75.3228 72.9972C75.2047 72.9594 75.0899 72.9677 74.9784 73.0219C74.873 73.0815 74.743 73.2007 74.5884 73.3795C74.5778 73.3919 74.554 73.382 74.5171 73.3499C74.4802 73.3179 74.467 73.2957 74.4777 73.2834C74.6429 73.0922 74.7793 72.9408 74.8867 72.829L75.4796 72.1619L76.0381 71.4972C76.1332 71.3747 76.2687 71.2118 76.4446 71.0083Z" fill="#BB2339"/>
<path id="N" d="M67.7124 88.0101C67.6919 88.0233 67.6684 88.0093 67.642 87.9682C67.6156 87.927 67.6127 87.8998 67.6332 87.8865C67.914 87.7057 68.0818 87.4619 68.1366 87.155C68.1846 86.8526 68.1063 86.5345 67.902 86.2006L64.5062 80.8821C64.4861 80.8659 64.4922 80.8377 64.5245 80.7975C64.5455 80.7549 64.58 80.7181 64.628 80.6872C64.6964 80.6431 64.7541 80.635 64.8011 80.663L72.5768 83.3058L69.9401 79.1711C69.7357 78.8373 69.4864 78.6294 69.192 78.5475C68.8975 78.4656 68.6065 78.5173 68.319 78.7025C68.2916 78.7202 68.2647 78.7084 68.2383 78.6672C68.2119 78.6261 68.2123 78.5967 68.2397 78.579C68.4315 78.4555 68.5809 78.3641 68.688 78.3048L69.3417 77.8983L69.9514 77.4911C70.0634 77.4092 70.2255 77.2999 70.4378 77.1632C70.4652 77.1456 70.4921 77.1573 70.5185 77.1985C70.5449 77.2397 70.5444 77.2691 70.517 77.2867C70.2294 77.472 70.065 77.7136 70.0239 78.0116C69.976 78.3141 70.0542 78.6322 70.2585 78.966L73.1461 83.4919C73.4855 83.5837 73.7625 83.6234 73.9772 83.6112C74.1851 83.6034 74.3712 83.5465 74.5355 83.4407C74.5492 83.4318 74.5693 83.448 74.5957 83.4892C74.6221 83.5304 74.6284 83.5554 74.6147 83.5642L74.0535 83.9112C73.9395 83.9749 73.7901 84.0663 73.6052 84.1854C73.4203 84.3044 73.2685 84.4071 73.1496 84.4934C73.0239 84.584 72.9405 84.6426 72.8994 84.6691C72.8446 84.7043 72.7948 84.7171 72.7498 84.7073C72.6979 84.7019 72.6273 84.6747 72.5378 84.6256C72.3764 84.555 72.2216 84.4947 72.0734 84.4447L65.9071 82.3653L68.2101 86.0022C68.4145 86.336 68.6639 86.5439 68.9583 86.6258C69.2458 86.7121 69.5368 86.6604 69.8313 86.4707C69.8587 86.4531 69.8856 86.4649 69.912 86.506C69.9384 86.5472 69.9379 86.5766 69.9105 86.5943L69.5033 86.842C69.2206 87.0047 68.9868 87.1456 68.8019 87.2647C68.6581 87.3573 68.4605 87.4943 68.2091 87.6756L67.7124 88.0101Z" fill="#BB2339"/>
<path id="E_2" d="M43.4645 87.2975C43.4482 87.3138 43.4279 87.322 43.4035 87.322C43.379 87.322 43.3546 87.3138 43.3302 87.2975C43.3058 87.2893 43.2976 87.2812 43.3058 87.273C43.3872 86.7428 43.4279 86.1635 43.4279 85.5354C43.4279 85.4701 43.4401 85.4212 43.4645 85.3885C43.4889 85.364 43.5378 85.3518 43.611 85.3518H49.1785C49.2111 85.3518 49.2274 85.3763 49.2274 85.4252C49.2274 85.4742 49.2152 85.4987 49.1908 85.4987C48.9466 85.4987 48.7716 85.519 48.6657 85.5598C48.5518 85.6006 48.4785 85.6781 48.446 85.7923C48.4053 85.9066 48.3849 86.0901 48.3849 86.343V92.0088C48.3849 92.2535 48.4053 92.433 48.446 92.5472C48.4867 92.6614 48.564 92.7389 48.678 92.7797C48.7919 92.8287 48.9628 92.8532 49.1908 92.8532C49.2152 92.8532 49.2314 92.8776 49.2396 92.9266C49.2396 92.9755 49.2314 93 49.2152 93H43.9529C43.8878 93 43.8552 92.9633 43.8552 92.8899L43.8308 91.2746C43.8308 91.2501 43.8552 91.2379 43.9041 91.2379C43.9447 91.2379 43.9692 91.246 43.9773 91.2623C44.1157 91.7192 44.368 92.0781 44.7343 92.3392C45.0924 92.6084 45.5198 92.743 46.0163 92.743H46.2483C46.5006 92.743 46.6837 92.7226 46.7977 92.6818C46.9035 92.6492 46.9727 92.5839 47.0053 92.486C47.0378 92.3881 47.0582 92.225 47.0663 91.9966V89.5002H45.5401C45.125 89.5002 44.8198 89.5736 44.6244 89.7205C44.4291 89.8673 44.3314 90.1039 44.3314 90.4302C44.3314 90.4628 44.3029 90.4792 44.2459 90.4792C44.1889 90.4792 44.1604 90.4588 44.1604 90.418L44.1727 89.7449C44.1808 89.647 44.1849 89.5083 44.1849 89.3289C44.1849 89.0678 44.1808 88.872 44.1727 88.7415L44.1604 88.0807C44.1604 88.0399 44.1849 88.0195 44.2337 88.0195C44.2581 88.0195 44.2825 88.0236 44.307 88.0317C44.3232 88.0481 44.3314 88.0644 44.3314 88.0807C44.3314 88.4315 44.4413 88.6966 44.661 88.8761C44.8727 89.0637 45.1738 89.1575 45.5645 89.1575H47.0663V86.392C47.0663 86.0656 47.0175 85.8535 46.9198 85.7556C46.814 85.6577 46.5983 85.6088 46.2727 85.6088H45.9308C45.4017 85.6088 44.9174 85.7597 44.4779 86.0616C44.0384 86.3716 43.7006 86.7835 43.4645 87.2975Z" fill="#BB2339"/>
<path id="V" d="M29.1419 89.8998C29.1029 89.8883 29.0903 89.8591 29.104 89.8121C29.1178 89.7652 29.1442 89.7474 29.1832 89.7589C29.4722 89.8439 29.7501 89.8365 30.0169 89.7364C30.276 89.6341 30.5737 89.3561 30.9102 88.9025L34.8731 83.6281C34.908 83.5959 34.9723 83.5935 35.0661 83.6211C35.1051 83.6326 35.1419 83.6519 35.1763 83.6791C35.2131 83.6984 35.2331 83.717 35.2363 83.735L36.2924 90.9456C36.3412 91.3 36.4148 91.5555 36.5132 91.712C36.6093 91.8763 36.7667 91.9906 36.9853 92.055C37.0088 92.0619 37.0136 92.0888 36.9999 92.1358C36.9861 92.1828 36.9714 92.2039 36.9558 92.1993L36.3383 92.0049C36.0618 91.9065 35.8571 91.8378 35.7243 91.7987C35.4275 91.7113 35.0894 91.6203 34.71 91.5257L34.1325 91.3685C34.0934 91.357 34.0808 91.3278 34.0946 91.2808C34.1083 91.2338 34.1347 91.2161 34.1738 91.2276C34.6111 91.3563 34.8653 91.2993 34.9364 91.0567C34.9617 90.9706 34.9648 90.844 34.9459 90.6768L34.1642 85.1795L31.3099 89.0584C31.197 89.2122 31.1222 89.3517 31.0855 89.477C31.0144 89.7196 31.0492 89.9339 31.1898 90.1199C31.3282 90.3136 31.5457 90.4542 31.8425 90.5415C31.8737 90.5507 31.8825 90.5788 31.8687 90.6257C31.855 90.6727 31.8325 90.6916 31.8012 90.6824L31.2072 90.4948C30.8682 90.3781 30.5581 90.2783 30.2769 90.1955C30.1207 90.1496 29.9232 90.0999 29.6843 90.0467L29.1419 89.8998Z" fill="#BB2339"/>
<path id="E_3" d="M21.9233 79.2625C21.9008 79.2674 21.8793 79.2632 21.8588 79.25C21.8382 79.2367 21.8221 79.2166 21.8103 79.1897C21.7942 79.1696 21.7918 79.1583 21.803 79.1559C22.1575 78.7539 22.5042 78.2886 22.843 77.7602C22.8783 77.7053 22.9149 77.6707 22.9531 77.6565C22.9868 77.6492 23.0345 77.6653 23.0961 77.705L27.7798 80.7219C27.8072 80.7395 27.8077 80.7689 27.7813 80.8101C27.7549 80.8513 27.7314 80.8652 27.7109 80.852C27.5055 80.7197 27.3472 80.642 27.2362 80.619C27.1183 80.5916 27.0149 80.6171 26.9259 80.6955C26.8301 80.7695 26.7139 80.9129 26.5775 81.1257L23.5213 85.892C23.3893 86.0979 23.3096 86.2599 23.2822 86.3781C23.2548 86.4962 23.2781 86.6033 23.3519 86.6994C23.4214 86.8023 23.552 86.9155 23.7437 87.039C23.7643 87.0522 23.7648 87.0817 23.7452 87.1272C23.7188 87.1684 23.6987 87.1846 23.6851 87.1758L19.2581 84.3243C19.2034 84.289 19.1958 84.2405 19.2354 84.1788L20.0862 82.8066C20.0994 82.7861 20.1265 82.789 20.1676 82.8155C20.2018 82.8375 20.218 82.8576 20.216 82.8757C20.086 83.3351 20.1046 83.7738 20.272 84.1918C20.428 84.6124 20.7149 84.9572 21.1326 85.2262L21.3278 85.3519C21.54 85.4887 21.7051 85.5707 21.823 85.5982C21.9296 85.6281 22.023 85.6106 22.1032 85.5459C22.1834 85.4812 22.2885 85.355 22.4186 85.1672L23.7652 83.0672L22.4813 82.2402C22.132 82.0152 21.8357 81.9116 21.5921 81.9293C21.3486 81.947 21.1388 82.0931 20.9627 82.3676C20.9451 82.395 20.9124 82.3933 20.8644 82.3624C20.8165 82.3316 20.8035 82.299 20.8255 82.2647L21.1989 81.7051C21.2585 81.6271 21.3368 81.5127 21.4336 81.3617C21.5744 81.1421 21.6766 80.9751 21.7401 80.8609L22.0863 80.2984C22.1083 80.2641 22.1399 80.2602 22.181 80.2866C22.2015 80.2999 22.2198 80.3165 22.236 80.3366C22.2409 80.3592 22.2389 80.3773 22.2301 80.391C22.0409 80.6861 21.9903 80.9687 22.0784 81.2388C22.1552 81.5113 22.358 81.7534 22.6866 81.9652L23.95 82.7789L25.4418 80.4523C25.6178 80.1778 25.6912 79.9729 25.6618 79.8376C25.6256 79.6979 25.4705 79.5399 25.1966 79.3635L24.909 79.1782C24.464 78.8915 23.9751 78.7561 23.4425 78.7718C22.9055 78.7944 22.3991 78.958 21.9233 79.2625Z" fill="#BB2339"/>
<path id="R" d="M14.0871 68.7345C14.0711 68.716 14.0816 68.6907 14.1185 68.6586C14.1501 68.6204 14.1765 68.6136 14.1978 68.6383L15.5091 70.155C15.637 70.303 15.6148 70.7756 15.4425 71.5729C15.2588 72.3694 14.8925 73.4594 14.3437 74.8427C14.536 74.978 14.7227 75.1504 14.904 75.36C14.9306 75.3908 14.9591 75.4363 14.9895 75.4963L17.1763 73.597C17.3601 73.4483 17.4847 73.3184 17.5503 73.2075C17.6045 73.0957 17.6127 72.9806 17.575 72.8622C17.5258 72.743 17.4212 72.5909 17.2613 72.406C17.24 72.3813 17.2478 72.353 17.2847 72.3209C17.3163 72.2827 17.3427 72.2759 17.3641 72.3006C17.5453 72.5102 17.6808 72.6732 17.7706 72.7895L18.353 73.4819L18.9619 74.1675C19.0747 74.2854 19.2217 74.4492 19.4029 74.6589C19.4242 74.6835 19.4191 74.715 19.3875 74.7532C19.3506 74.7852 19.3215 74.7889 19.3002 74.7643C19.1243 74.5608 18.9783 74.4231 18.8623 74.3512C18.7401 74.2846 18.6226 74.2733 18.5098 74.3172C18.3856 74.3604 18.2316 74.4563 18.0478 74.6051L13.7756 78.3154C13.5911 78.4757 13.4717 78.6117 13.4176 78.7235C13.3581 78.8291 13.353 78.9415 13.4022 79.0607C13.4452 79.1852 13.5494 79.3431 13.7146 79.5342C13.7359 79.5589 13.7281 79.5872 13.6912 79.6193C13.6543 79.6513 13.6252 79.655 13.6039 79.6304L13.1893 79.1322C12.9671 78.8502 12.7814 78.6229 12.6321 78.4503C12.4509 78.2407 12.2414 78.0232 12.0035 77.798C11.8207 77.6114 11.7026 77.4873 11.6493 77.4256C11.1109 76.8029 10.81 76.2492 10.7464 75.7647C10.6776 75.2739 10.8246 74.871 11.1876 74.5558C11.4521 74.326 11.7847 74.1937 12.1853 74.1588C12.5806 74.1178 12.9866 74.17 13.4032 74.3155C13.781 73.1455 14.0536 72.1963 14.221 71.468C14.3768 70.7389 14.447 70.1598 14.4315 69.7307C14.4045 69.3008 14.2897 68.9687 14.0871 68.7345ZM14.7311 75.7207C14.6856 75.6306 14.6175 75.5332 14.5269 75.4284C14.1751 75.0215 13.838 74.8123 13.5157 74.8007C13.1881 74.783 12.8151 74.9558 12.3968 75.3191C11.9601 75.6984 11.7148 76.0625 11.661 76.4115C11.5958 76.7596 11.6698 77.0569 11.883 77.3036C12.0269 77.47 12.1379 77.5734 12.2158 77.6137C12.2875 77.6593 12.374 77.6597 12.4753 77.6149C12.5651 77.5693 12.7142 77.4615 12.9225 77.2913L14.7311 75.7207Z" fill="#BB2339"/>
<path id="Y" d="M2.68863 62.6023C2.67172 62.5652 2.68548 62.5364 2.72991 62.5161C2.77433 62.4958 2.805 62.5042 2.8219 62.5413C2.94025 62.801 3.15348 63.0038 3.46159 63.1498C3.75892 63.2917 4.16731 63.3828 4.68676 63.4231L7.30412 63.5704L9.89185 62.3859C10.1214 62.2809 10.2795 62.1861 10.3663 62.1015C10.4496 62.0095 10.4828 61.8957 10.4657 61.76C10.4486 61.6244 10.3792 61.4229 10.2575 61.1558C10.244 61.1261 10.2594 61.1011 10.3038 61.0808C10.3483 61.0604 10.3772 61.0651 10.3908 61.0948C10.5091 61.3545 10.5967 61.5566 10.6535 61.701L11.0431 62.5854L11.4752 63.5042C11.5502 63.6492 11.6452 63.8479 11.7602 64.1002C11.7737 64.1299 11.7583 64.1549 11.7138 64.1753C11.6694 64.1956 11.6404 64.1909 11.6269 64.1612C11.5052 63.8941 11.3971 63.7059 11.3026 63.5967C11.2007 63.4909 11.0877 63.4394 10.9638 63.4423C10.8365 63.4378 10.6634 63.4901 10.4447 63.5992L8.01753 64.7236L6.13629 67.7237C5.94349 68.0272 5.82136 68.2894 5.76988 68.5103C5.71501 68.7237 5.72478 68.9121 5.79917 69.0753C5.81269 69.105 5.79724 69.13 5.75282 69.1503C5.71178 69.1781 5.68618 69.1808 5.67604 69.1586L5.4234 68.5747C5.30972 68.2859 5.22244 68.0747 5.16158 67.9412C5.07705 67.7556 4.94284 67.4807 4.75897 67.1165L4.48919 66.5539C4.47905 66.5316 4.48878 66.5137 4.5184 66.5001C4.54061 66.49 4.5662 66.4872 4.59518 66.4919C4.61337 66.4925 4.62584 66.5003 4.63261 66.5151C4.72052 66.7081 4.79958 66.8423 4.86977 66.9178C4.93658 66.9859 5.0033 67.0046 5.06994 66.9741C5.13658 66.9436 5.20482 66.8676 5.27466 66.7459L7.06827 63.907L4.55908 63.791C4.38057 63.7919 4.23208 63.8196 4.11361 63.8738C3.94332 63.9517 3.83339 64.0738 3.78384 64.24C3.7309 64.3987 3.75346 64.5857 3.85152 64.8009C3.86505 64.8306 3.8496 64.8556 3.80517 64.8759C3.76075 64.8963 3.73346 64.8953 3.72332 64.873L3.46054 64.2669C3.30628 63.8891 3.1835 63.6 3.09221 63.3996C3.03472 63.2734 2.96138 63.1321 2.87219 62.9756L2.68863 62.6023Z" fill="#BB2339"/>
<path id="B" d="M3.87614 39.5607C4.05517 38.8859 4.35953 38.3693 4.78922 38.0109C5.21086 37.6513 5.69561 37.511 6.24347 37.5899C6.66242 37.6503 7.02314 37.83 7.32561 38.1291C7.62809 38.4282 7.84876 38.8103 7.98762 39.2754C8.11843 39.7393 8.14503 40.2418 8.06742 40.7828C8.03499 41.0089 7.98583 41.2655 7.91996 41.5528C7.89569 41.6647 7.86736 41.8048 7.83497 41.9732C7.80375 42.1336 7.77366 42.3147 7.7447 42.5165L7.63168 43.3904C7.61772 43.545 7.59105 43.7595 7.55167 44.0341C7.54935 44.0502 7.52402 44.0548 7.47568 44.0479C7.42734 44.0409 7.40433 44.0293 7.40665 44.0132C7.44024 43.779 7.445 43.6025 7.42094 43.4836C7.38997 43.3556 7.32157 43.2592 7.21572 43.1945C7.10988 43.1297 6.9361 43.08 6.6944 43.0452L1.09895 42.2388C0.865306 42.2052 0.68861 42.2044 0.568864 42.2366C0.44222 42.2596 0.350068 42.3287 0.292408 42.444C0.22785 42.5501 0.178774 42.7203 0.145181 42.9544C0.142864 42.9706 0.117535 42.9752 0.0691947 42.9682C0.0208541 42.9612 -0.00215785 42.9497 0.000158935 42.9335L0.104336 42.2933C0.171419 41.9403 0.220598 41.6548 0.251875 41.4368C0.28431 41.2107 0.305818 40.9748 0.3164 40.729C0.319927 40.6471 0.329246 40.5248 0.344357 40.3622C0.359468 40.1995 0.375712 40.0576 0.393088 39.9365C0.501976 39.1774 0.718897 38.6112 1.04385 38.2377C1.36996 37.8561 1.7868 37.7018 2.29438 37.775C2.68111 37.8307 3.01305 38.0104 3.29019 38.3141C3.56734 38.6178 3.76265 39.0333 3.87614 39.5607ZM0.608727 40.153C0.575134 40.3872 0.608364 40.5568 0.708417 40.6619C0.808469 40.767 1.01157 40.8416 1.31773 40.8857L3.61392 41.2166L3.69725 40.7217C3.7598 40.2857 3.65077 39.9279 3.37014 39.6485C3.08262 39.3598 2.69716 39.1806 2.21375 39.1109C1.75451 39.0448 1.38841 39.1033 1.11543 39.2865C0.835546 39.4604 0.666647 39.7493 0.608727 40.153ZM7.77201 40.9504C7.85425 40.3771 7.7735 39.9368 7.52973 39.6297C7.28597 39.3226 6.88613 39.129 6.33021 39.0489C5.70984 38.9595 5.19637 39.0421 4.78979 39.2967C4.38322 39.5513 4.13417 39.9976 4.04266 40.6355C4.00907 40.8697 3.98701 41.0808 3.97648 41.2688L6.88901 41.6885C7.171 41.7292 7.37592 41.7051 7.50377 41.6164C7.63163 41.5277 7.72104 41.3057 7.77201 40.9504Z" fill="#BB2339"/>
<path id="I_3" d="M10.5814 31.5071C10.5746 31.522 10.549 31.5192 10.5046 31.4989C10.4602 31.4786 10.4413 31.461 10.4481 31.4461C10.5529 31.2161 10.6088 31.0444 10.6157 30.9309C10.626 30.8101 10.5878 30.7074 10.5011 30.6229C10.4143 30.5383 10.2562 30.4435 10.0267 30.3384L4.88453 27.9848C4.66981 27.8865 4.50048 27.8359 4.37653 27.833C4.24856 27.8193 4.1424 27.8559 4.05804 27.9428C3.96628 28.0264 3.87137 28.1758 3.77331 28.391C3.76655 28.4058 3.73926 28.4068 3.69146 28.3939C3.64703 28.3735 3.62989 28.3522 3.64004 28.33L3.90474 27.7785C4.06833 27.4587 4.19577 27.1987 4.28707 26.9983C4.38851 26.7757 4.50959 26.4903 4.65033 26.1422L4.88775 25.5917C4.89451 25.5768 4.9201 25.5796 4.96453 25.5999C5.00895 25.6202 5.02778 25.6378 5.02102 25.6527C4.91958 25.8753 4.8674 26.0487 4.86449 26.1729C4.86157 26.2972 4.90349 26.4016 4.99024 26.4861C5.08038 26.5632 5.23851 26.658 5.46466 26.7705L10.5846 29.114C10.8067 29.2157 10.978 29.2717 11.0986 29.282C11.2226 29.2849 11.3304 29.2446 11.4222 29.1611C11.5065 29.0741 11.5977 28.923 11.6958 28.7078C11.7026 28.693 11.7282 28.6957 11.7726 28.7161C11.817 28.7364 11.8358 28.754 11.8291 28.7688C11.7243 28.9989 11.636 29.1827 11.5644 29.3203L11.183 30.1278L10.834 30.9232C10.7772 31.0676 10.6929 31.2622 10.5814 31.5071Z" fill="#BB2339"/>
<path id="T_2" d="M15.9085 22.4082C15.8925 22.4267 15.8661 22.4199 15.8292 22.3878C15.7922 22.3558 15.7791 22.3336 15.7898 22.3213C16.0137 22.0623 16.1608 21.8609 16.2314 21.7171C16.3072 21.567 16.3207 21.4331 16.2719 21.3151C16.217 21.1918 16.0972 21.05 15.9127 20.8898L11.6404 17.1795C11.4305 16.9863 11.265 16.8912 11.144 16.8941C11.0169 16.8916 10.8787 16.9767 10.7295 17.1493L10.6255 17.2696C10.4443 17.4792 10.3334 17.7445 10.2928 18.0655C10.2461 18.3811 10.2722 18.706 10.371 19.0402C10.4637 19.369 10.6259 19.6609 10.8577 19.9162C10.87 19.9268 10.8628 19.9476 10.8361 19.9784C10.8201 19.9969 10.8011 20.0127 10.7789 20.0259C10.756 20.0275 10.7441 20.0226 10.7433 20.0111C10.5361 19.7773 9.96404 19.1995 9.02695 18.2777C9.0085 18.2617 9.01259 18.2382 9.03925 18.2074C9.05524 18.1889 9.07164 18.1762 9.08845 18.1692C9.11059 18.156 9.12782 18.1548 9.14012 18.1655C9.2693 18.2777 9.45383 18.195 9.69369 17.9176C10.1439 17.4342 10.6942 16.8164 11.3445 16.0642C11.6376 15.7251 11.9593 15.3406 12.3095 14.9107L12.8599 14.2553C13.0358 14.0518 13.1484 13.8905 13.1976 13.7713C13.2468 13.6521 13.2359 13.5401 13.1649 13.4353C13.1571 13.407 13.1696 13.38 13.2024 13.3546C13.2344 13.3176 13.2601 13.3128 13.2793 13.3404C13.534 13.5939 13.8594 13.9089 14.2556 14.2854C14.6456 14.6565 14.914 14.9004 15.0608 15.0171C15.0793 15.0331 15.0725 15.0596 15.0405 15.0966C14.9979 15.1459 14.9643 15.1599 14.9397 15.1385C14.6874 14.9195 14.403 14.7751 14.0865 14.7052C13.7752 14.6292 13.4671 14.6369 13.162 14.7281C12.8622 14.8132 12.6111 14.9729 12.4085 15.2072L12.3046 15.3274C12.198 15.4507 12.1361 15.5535 12.1188 15.6357C12.107 15.7117 12.1326 15.788 12.1957 15.8644C12.2528 15.9355 12.3616 16.0463 12.5224 16.1967L16.7842 19.8817C16.9749 20.0473 17.1293 20.149 17.2474 20.1868C17.3708 20.2185 17.4985 20.1891 17.6306 20.0986C17.7626 20.0082 17.9432 19.8304 18.1724 19.5653C18.1884 19.5468 18.2149 19.5536 18.2518 19.5856C18.2887 19.6177 18.2992 19.643 18.2832 19.6615C18.0859 19.8896 17.9283 20.0657 17.8102 20.1899L17.0734 21.0234L16.395 21.8268C16.2839 21.9678 16.1217 22.1616 15.9085 22.4082Z" fill="#BB2339"/>
<path id="E_4" d="M26.7685 10.6412C26.7734 10.6187 26.7861 10.6008 26.8066 10.5875C26.8272 10.5743 26.8521 10.5679 26.8815 10.5684C26.9064 10.5621 26.9176 10.5645 26.9152 10.5758C27.1328 11.066 27.411 11.5753 27.7498 12.1038C27.785 12.1587 27.8012 12.2065 27.7982 12.2472C27.7909 12.281 27.7564 12.3177 27.6948 12.3574L23.0111 15.3743C22.9837 15.3919 22.9568 15.3801 22.9304 15.339C22.904 15.2978 22.901 15.2706 22.9216 15.2573C23.127 15.125 23.2632 15.013 23.3302 14.9214C23.4041 14.8253 23.4239 14.7204 23.3897 14.6067C23.3623 14.4886 23.2804 14.3231 23.144 14.1104L20.0878 9.34402C19.9558 9.13813 19.8418 8.99817 19.746 8.92414C19.6501 8.85011 19.5433 8.82681 19.4254 8.85425C19.3032 8.87482 19.1462 8.94685 18.9544 9.07035C18.9339 9.08358 18.907 9.07181 18.8737 9.03504C18.8473 8.99386 18.841 8.96886 18.8547 8.96004L23.2816 6.1086C23.3364 6.07331 23.3836 6.08655 23.4232 6.14832L24.315 7.49397C24.3282 7.51455 24.3143 7.53808 24.2732 7.56454C24.239 7.5866 24.214 7.59297 24.1984 7.58365C23.8355 7.2743 23.4296 7.10906 22.9807 7.08792C22.5342 7.0555 22.1021 7.17382 21.6844 7.44287L21.4892 7.56857C21.2769 7.7053 21.1339 7.82169 21.06 7.91776C20.9886 8.00255 20.9656 8.09494 20.991 8.19494C21.0164 8.29494 21.0873 8.44322 21.2037 8.6398L22.5503 10.7399L23.8342 9.91289C24.1834 9.68795 24.4006 9.46079 24.4857 9.2314C24.5708 9.00201 24.5254 8.75006 24.3494 8.47554C24.3318 8.44809 24.3469 8.41892 24.3949 8.38805C24.4428 8.35717 24.4778 8.35889 24.4998 8.39321L24.8526 8.96602C24.8985 9.05279 24.9699 9.17167 25.0667 9.32265C25.2075 9.54227 25.3166 9.70478 25.3938 9.81017L25.7606 10.3595C25.7826 10.3938 25.773 10.4242 25.7319 10.4506C25.7114 10.4639 25.6886 10.4737 25.6637 10.48C25.6412 10.4751 25.6256 10.4658 25.6168 10.4521C25.4275 10.157 25.1921 9.99347 24.9104 9.96157C24.6311 9.9184 24.3272 10.0027 23.9985 10.2144L22.7351 11.0281L24.2269 13.3547C24.4029 13.6292 24.5584 13.7812 24.6934 13.8106C24.8352 13.8356 25.0431 13.7599 25.317 13.5835L25.6046 13.3983C26.0497 13.1116 26.3757 12.7222 26.5827 12.2301C26.7852 11.7311 26.8471 11.2015 26.7685 10.6412Z" fill="#BB2339"/>
</g>
</g>
</svg>
